<svg id="Mailbox" xmlns="http://www.w3.org/2000/svg" width="100" height="100" viewBox="0 0 100 100">
  <g id="Group" transform="translate(1.667 1.667)">
    <path id="Vector" d="M0,0A19.973,19.973,0,0,1,20,20V50H63.333V20a20,20,0,0,0-20-20H0Z" transform="translate(33.333)" fill="#40aa54"/>
    <path id="Vector-2" data-name="Vector" d="M0,29.642l16.577-14.81L0,0Z" transform="translate(0 20.175)" fill="#40aa54"/>
    <path id="Vector-3" data-name="Vector" d="M26.757,0,23.89,2.567a3.333,3.333,0,0,1-4.447,0L16.577,0,0,14.817V15H43.333v-.183Z" transform="translate(0 35)" fill="#40aa54"/>
    <path id="Vector-4" data-name="Vector" d="M16.577,0,0,14.832l16.577,14.81Z" transform="translate(26.757 20.175)" fill="#40aa54"/>
    <path id="Vector-5" data-name="Vector" d="M19.45,17.567a3.333,3.333,0,0,0,4.447,0L26.757,15,43.333.175V0H0V.175L16.577,15h.007Z" transform="translate(0 20)" fill="#40aa54"/>
    <path id="Vector-6" data-name="Vector" d="M0,10V46.667H16.667V0H5Z" transform="translate(48.334 50)" fill="#40aa54"/>
  </g>
  <path id="Vector-7" data-name="Vector" d="M66.667,100H50a1.665,1.665,0,0,1-1.667-1.667V66.225a4.989,4.989,0,0,1-2.06.442H13.727A5,5,0,0,1,9.255,59.43l3.048-6.1H1.667A1.665,1.665,0,0,1,0,51.666v-30A1.667,1.667,0,0,1,1.667,20H13.418A21.687,21.687,0,0,1,32.747.118,1.638,1.638,0,0,1,33.333,0h45A21.691,21.691,0,0,1,100,21.667v30a1.665,1.665,0,0,1-1.667,1.667h-30v45A1.665,1.665,0,0,1,66.667,100ZM56.03,53.333h0L51.666,62.06V96.666H65V53.333H56.03Zm-40,0h0l-3.793,7.589a1.666,1.666,0,0,0,1.49,2.411H46.273a1.666,1.666,0,0,0,1.49-.922L52.3,53.333H16.03Zm30.51-50A21.522,21.522,0,0,1,56.667,21.667V50h40V21.667A18.353,18.353,0,0,0,78.333,3.334Zm-11.512,0H35A18.35,18.35,0,0,0,16.752,20H45a1.669,1.669,0,0,1,1.667,1.667V50h6.666V21.667A18.3,18.3,0,0,0,35.027,3.334ZM18.247,38.908,5.833,50h35L28.423,38.908l-1.756,1.574a5,5,0,0,1-6.667,0ZM43.333,25.57l-12.4,11.1,12.4,11.093Zm-40,0V47.76L15.742,36.667Zm2.5-2.236L22.226,37.99a1.668,1.668,0,0,0,2.224,0L40.833,23.333Z" fill="#16162e"/>
</svg>
