<svg xmlns="http://www.w3.org/2000/svg" width="24" height="25.941" viewBox="0 0 24 25.941">
  <g id="cancel_order" transform="translate(0 0)">
    <path id="Vector" d="M18.718,20.2a2.245,2.245,0,0,1-1.874-3.477H9.819a2.242,2.242,0,1,1-3.341-.465L3.4,1.013H.507A.507.507,0,0,1,.507,0H3.813a.508.508,0,0,1,.5.406l.627,3.107H23.494a.507.507,0,0,1,.5.59L22.57,12.683a2.528,2.528,0,0,1-2.5,2.123H7.218l.184.905H20.454a.507.507,0,0,1,.127,1A2.244,2.244,0,0,1,18.718,20.2Zm0-3.477a1.232,1.232,0,1,0,1.229,1.232A1.232,1.232,0,0,0,18.718,16.725Zm-10.773,0a1.232,1.232,0,1,0,1.228,1.232A1.232,1.232,0,0,0,7.945,16.725Zm-2.8-12.2,1.872,9.266H20.067a1.521,1.521,0,0,0,1.5-1.275L22.9,4.526Z" transform="translate(0 5.74)" fill="#fff"/>
    <path id="Vector-2" data-name="Vector" d="M3.874,7.747A3.874,3.874,0,1,1,7.747,3.874,3.878,3.878,0,0,1,3.874,7.747Zm0-6.734a2.86,2.86,0,1,0,2.86,2.86A2.863,2.863,0,0,0,3.874,1.013Z" transform="translate(10.289)" fill="#fff"/>
    <path id="Vector-3" data-name="Vector" d="M.507,2.824a.505.505,0,0,0,.358-.148l.547-.547.547.547a.507.507,0,1,0,.717-.717l-.547-.547L2.676.865A.507.507,0,1,0,1.96.148L1.412.7.865.148A.507.507,0,0,0,.148.865L.7,1.412.148,1.96a.507.507,0,0,0,0,.717h0A.505.505,0,0,0,.507,2.824Z" transform="translate(12.75 2.461)" fill="#fff"/>
  </g>
</svg>
