<svg xmlns="http://www.w3.org/2000/svg" width="24" height="25.012" viewBox="0 0 24 25.012">
  <g id="discount" transform="translate(0 0)">
    <g id="Group">
      <g id="Group-2" data-name="Group">
        <path id="Vector" d="M12,25.012a2.17,2.17,0,0,1-1.516-.617L8.958,22.918a.731.731,0,0,0-.511-.207.749.749,0,0,0-.106.008l-2.1.3a2.172,2.172,0,0,1-2.452-1.782l-.367-2.093a.732.732,0,0,0-.381-.524l-1.877-1a2.172,2.172,0,0,1-.937-2.884l.933-1.908a.733.733,0,0,0,0-.648L.224,10.273a2.171,2.171,0,0,1,.937-2.883l1.877-1a.731.731,0,0,0,.381-.524l.367-2.093a2.173,2.173,0,0,1,2.14-1.8A2.237,2.237,0,0,1,6.238,2l2.1.3a.762.762,0,0,0,.1.007.731.731,0,0,0,.512-.208L10.484.617a2.173,2.173,0,0,1,3.032,0l1.526,1.477a.734.734,0,0,0,.513.208.761.761,0,0,0,.1-.007l2.1-.3a2.237,2.237,0,0,1,.312-.022,2.173,2.173,0,0,1,2.141,1.8l.366,2.093a.732.732,0,0,0,.382.524l1.876,1a2.169,2.169,0,0,1,.937,2.883l-.932,1.909a.731.731,0,0,0,0,.648l.932,1.908a2.171,2.171,0,0,1-.937,2.884l-1.876,1a.732.732,0,0,0-.381.524l-.367,2.093a2.173,2.173,0,0,1-2.141,1.8,2.239,2.239,0,0,1-.312-.022l-2.1-.3a.755.755,0,0,0-.106-.008.731.731,0,0,0-.51.207L13.516,24.4A2.174,2.174,0,0,1,12,25.012ZM8.45,21.268a2.163,2.163,0,0,1,1.51.614l1.526,1.477a.735.735,0,0,0,1.026,0l1.526-1.477a2.166,2.166,0,0,1,1.512-.614,2.225,2.225,0,0,1,.309.022l2.1.3a.759.759,0,0,0,.105.007.736.736,0,0,0,.724-.61l.367-2.092a2.168,2.168,0,0,1,1.125-1.549l1.877-1a.734.734,0,0,0,.317-.976l-.932-1.909a2.162,2.162,0,0,1,0-1.914l.932-1.909a.732.732,0,0,0-.317-.975l-1.877-1A2.165,2.165,0,0,1,19.161,6.12l-.367-2.092a.736.736,0,0,0-.724-.61.758.758,0,0,0-.105.007l-2.1.3a2.228,2.228,0,0,1-.31.022,2.163,2.163,0,0,1-1.512-.614L12.513,1.653a.735.735,0,0,0-1.026,0L9.96,3.13a2.163,2.163,0,0,1-1.512.614,2.229,2.229,0,0,1-.31-.022l-2.1-.3a.761.761,0,0,0-.106-.007.734.734,0,0,0-.724.61L4.839,6.12A2.164,2.164,0,0,1,3.713,7.669l-1.877,1a.734.734,0,0,0-.317.975l.933,1.909a2.168,2.168,0,0,1,0,1.914L1.52,15.372a.736.736,0,0,0,.317.976l1.877,1a2.167,2.167,0,0,1,1.126,1.549l.367,2.092a.736.736,0,0,0,.724.61.759.759,0,0,0,.105-.007l2.1-.3A2.261,2.261,0,0,1,8.45,21.268Z" fill="#fff"/>
      </g>
    </g>
    <path id="Vector-2" data-name="Vector" d="M9.732.211.211,9.732a.721.721,0,1,0,1.02,1.02l9.521-9.521A.721.721,0,1,0,9.732.211Z" transform="translate(6.518 7.024)" fill="#fff"/>
    <path id="Vector-3" data-name="Vector" d="M2.645,5.289A2.645,2.645,0,1,1,5.289,2.645,2.648,2.648,0,0,1,2.645,5.289Zm0-3.847a1.2,1.2,0,1,0,1.2,1.2A1.2,1.2,0,0,0,2.645,1.443Z" transform="translate(6.471 6.015)" fill="#fff"/>
    <path id="Vector-4" data-name="Vector" d="M2.645,5.289A2.645,2.645,0,1,1,5.289,2.645,2.648,2.648,0,0,1,2.645,5.289Zm0-3.847a1.2,1.2,0,1,0,1.2,1.2A1.2,1.2,0,0,0,2.645,1.443Z" transform="translate(12.24 13.708)" fill="#fff"/>
  </g>
</svg>
