<svg xmlns="http://www.w3.org/2000/svg" width="20" height="21.564" viewBox="0 0 20 21.564">
  <g id="gift_offer" transform="translate(0 0)">
    <path id="Vector" d="M3.11,3.454h0a.4.4,0,0,1-.1-.016,6.328,6.328,0,0,1-2.367-1.3A2.169,2.169,0,0,1,0,.627V.621a1.378,1.378,0,0,1,.018-.2A.961.961,0,0,1,.061.255.364.364,0,0,1,.267.049,1.99,1.99,0,0,1,2.155.626,6.339,6.339,0,0,1,3.452,3a.357.357,0,0,1-.342.459ZM1.143,1.637A4.859,4.859,0,0,0,2.5,2.486a4.824,4.824,0,0,0-.847-1.354A1.47,1.47,0,0,0,.719.7,1.231,1.231,0,0,0,.741.865l0,.018,0,.02c0,.013.006.025.01.039l0,.015L.767.981c0,.013.006.024.009.036C.79,1.06.8,1.1.818,1.135a1.465,1.465,0,0,0,.327.5Z" transform="translate(5.572 1.435)" fill="#fff"/>
    <path id="Vector-2" data-name="Vector" d="M17.143,21.564H2.857a1.793,1.793,0,0,1-1.786-1.786V9.421H.357A.358.358,0,0,1,0,9.064V5.493a.358.358,0,0,1,.357-.357H5.87A5.076,5.076,0,0,1,5.2,4.587C3.922,3.305,3.881,1.363,4.7.547A2.2,2.2,0,0,1,6.252,0,3.558,3.558,0,0,1,8.738,1.05,6.981,6.981,0,0,1,10,2.986a7.007,7.007,0,0,1,1.261-1.935A3.563,3.563,0,0,1,13.749,0,2.2,2.2,0,0,1,15.3.547c.817.817.775,2.759-.5,4.04a4.957,4.957,0,0,1-.669.548h5.512A.358.358,0,0,1,20,5.493V9.064a.358.358,0,0,1-.357.357h-.714V19.778A1.791,1.791,0,0,1,17.143,21.564ZM11.428,9.421V20.849h5.715a1.072,1.072,0,0,0,1.071-1.071V9.421Zm-2.143,0V20.849h1.429V9.421Zm-7.5,0V19.778a1.073,1.073,0,0,0,1.072,1.071H8.572V9.421ZM12.143,5.849V8.707h7.143V5.849Zm-3.571,0V8.707h2.857V5.849Zm-7.857,0V8.707H7.857V5.849ZM13.752.715a2.843,2.843,0,0,0-1.985.841,6.772,6.772,0,0,0-1.391,2.409.133.133,0,0,1,0,.015c0,.005,0,.01,0,.015l.011.04c.016.058.032.115.047.174,0,.013.005.023.009.036.02.083.039.171.057.261,0,.021.007.042.01.063v.008c.012.064.022.132.031.205,0,.013,0,.026,0,.039s0,.029.005.043c.007.079.014.162.014.247v.023h2.134a5.972,5.972,0,0,0,1.585-1.053,2.415,2.415,0,0,0,.5-3.03A1.492,1.492,0,0,0,13.752.715Zm-7.5,0A1.493,1.493,0,0,0,5.2,1.052a2.416,2.416,0,0,0,.5,3.031,5.993,5.993,0,0,0,1.585,1.05H9.86a2.049,2.049,0,0,0-.018-.268c0-.016,0-.033-.007-.049s0-.022,0-.033c-.012-.083-.028-.168-.047-.25l-.006-.026c-.005-.024-.01-.048-.017-.072-.026-.1-.058-.23-.1-.363A6.818,6.818,0,0,0,8.232,1.555,2.84,2.84,0,0,0,6.249.715Z" fill="#fff"/>
    <path id="Vector-3" data-name="Vector" d="M.357,3.452a.357.357,0,0,1-.343-.458,6.332,6.332,0,0,1,1.3-2.37A2.021,2.021,0,0,1,3.2.046a.355.355,0,0,1,.205.205,2.034,2.034,0,0,1-.579,1.888,6.316,6.316,0,0,1-2.369,1.3A.357.357,0,0,1,.357,3.452ZM2.752.7a1.481,1.481,0,0,0-.934.428A4.828,4.828,0,0,0,.966,2.486a4.826,4.826,0,0,0,1.358-.851A1.484,1.484,0,0,0,2.752.7Z" transform="translate(10.959 1.438)" fill="#fff"/>
  </g>
</svg>
