<svg xmlns="http://www.w3.org/2000/svg" width="21.4" height="24.56" viewBox="0 0 21.4 24.56">
  <g id="home" transform="translate(0.2 0.46)">
    <path id="Stroke_1" data-name="Stroke 1" d="M0,9.6V20.424a1,1,0,0,0,.247.659l.854.976a1,1,0,0,0,.753.341H7V18.351a2,2,0,0,1,.495-1.317L8.4,16a1.9,1.9,0,0,1,2.8,0l.905,1.034a2,2,0,0,1,.495,1.317V22.4h5.146a1,1,0,0,0,.753-.341l.854-.976a1,1,0,0,0,.247-.659V9.6L9.8,0Z" transform="translate(0.7 0.8)" fill="none" stroke="#40aa54" stroke-width="1.8" stroke-dasharray="0 0"/>
  </g>
</svg>
