<svg xmlns="http://www.w3.org/2000/svg" width="16.857" height="19.836" viewBox="0 0 16.857 19.836">
  <g id="Location" transform="translate(0.75 0.75)">
    <path id="Path_33958" d="M7.7,0a7.678,7.678,0,0,1,7.652,7.7v.087a11.338,11.338,0,0,1-3.478,7.3,20.183,20.183,0,0,1-3.591,2.957.93.93,0,0,1-1.217,0,19.817,19.817,0,0,1-5.052-4.73A9.826,9.826,0,0,1,0,7.678V7.652A7.678,7.678,0,0,1,7.7,0Z" fill="none" stroke="#200e32" stroke-linecap="round" stroke-linejoin="round" stroke-width="1.5" stroke-dasharray="0 0"/>
    <circle id="Ellipse_740" cx="2.461" cy="2.461" r="2.461" transform="translate(5.217 5.339)" fill="none" stroke="#200e32" stroke-linecap="round" stroke-linejoin="round" stroke-width="1.5" stroke-dasharray="0 0" opacity="0.4"/>
  </g>
</svg>
