<svg xmlns="http://www.w3.org/2000/svg" width="12" height="10.801" viewBox="0 0 12 10.801">
  <g id="icon" transform="translate(-706.723 -290.737)">
    <g id="Path_1499" data-name="Path 1499" fill="none" stroke-miterlimit="10">
      <path d="M707.4,301.538a.449.449,0,0,0,.1-.011l2.478-.576a.06.06,0,0,1,.037,0,6.556,6.556,0,0,0,2.713.583c3.309,0,6-2.423,6-5.4s-2.691-5.4-6-5.4-6,2.423-6,5.4a4.982,4.982,0,0,0,1.064,3.069.055.055,0,0,1,.008.056l-.755,1.809a.321.321,0,0,0,.074.352.407.407,0,0,0,.285.114Z" stroke="none"/>
      <path d="M 712.7230224609375 300.5379943847656 C 715.4800415039062 300.5379943847656 717.7230224609375 298.5641479492188 717.7230224609375 296.1380004882812 C 717.7230224609375 293.7112731933594 715.4800415039062 291.7369995117188 712.7230224609375 291.7369995117188 C 709.9660034179688 291.7369995117188 707.7230224609375 293.7112731933594 707.7230224609375 296.1380004882812 C 707.7230224609375 297.0185241699219 708.0180053710938 297.8672790527344 708.5761108398438 298.5927124023438 C 708.8131103515625 298.8962097167969 708.8662719726562 299.2990112304688 708.7157592773438 299.653076171875 L 708.455322265625 300.2771301269531 L 709.7444458007812 299.9774780273438 C 709.9586791992188 299.9269409179688 710.18603515625 299.9457397460938 710.3919067382812 300.03076171875 L 710.4256591796875 300.0454406738281 C 711.1307983398438 300.36767578125 711.9252319335938 300.5379943847656 712.7230224609375 300.5379943847656 M 712.7230224609375 301.5379943847656 C 711.780029296875 301.5379943847656 710.8460083007812 301.3370056152344 710.010009765625 300.9549865722656 C 709.9979248046875 300.9500122070312 709.9849853515625 300.947998046875 709.9730224609375 300.9509887695312 L 707.4949951171875 301.5270080566406 C 707.3563842773438 301.557373046875 707.2101440429688 301.5188903808594 707.114013671875 301.4240112304688 C 707.0189819335938 301.3280029296875 706.989990234375 301.1919860839844 707.0399780273438 301.0719909667969 L 707.7949829101562 299.2630004882812 C 707.802978515625 299.2449951171875 707.7999877929688 299.2229919433594 707.7869873046875 299.2070007324219 C 707.0900268554688 298.3030090332031 706.7230224609375 297.2470092773438 706.7230224609375 296.1380004882812 C 706.7230224609375 293.1600036621094 709.4149780273438 290.7369995117188 712.7230224609375 290.7369995117188 C 716.031982421875 290.7369995117188 718.7230224609375 293.1600036621094 718.7230224609375 296.1380004882812 C 718.7230224609375 299.114990234375 716.031982421875 301.5379943847656 712.7230224609375 301.5379943847656 Z" stroke="none" fill="#8e8e93"/>
    </g>
    <g id="Group_813" data-name="Group 813">
      <g id="Ellipse_33" data-name="Ellipse 33" transform="translate(709.668 295.538)" fill="none" stroke="#8e8e93" stroke-miterlimit="10" stroke-width="1">
        <circle cx="0.6" cy="0.6" r="0.6" stroke="none"/>
        <circle cx="0.6" cy="0.6" r="0.1" fill="none"/>
      </g>
      <g id="Ellipse_34" data-name="Ellipse 34" transform="translate(712.123 295.538)" fill="none" stroke="#8e8e93" stroke-miterlimit="10" stroke-width="1">
        <circle cx="0.6" cy="0.6" r="0.6" stroke="none"/>
        <circle cx="0.6" cy="0.6" r="0.1" fill="none"/>
      </g>
      <g id="Ellipse_35" data-name="Ellipse 35" transform="translate(714.578 295.538)" fill="none" stroke="#8e8e93" stroke-miterlimit="10" stroke-width="1">
        <circle cx="0.6" cy="0.6" r="0.6" stroke="none"/>
        <circle cx="0.6" cy="0.6" r="0.1" fill="none"/>
      </g>
    </g>
  </g>
</svg>
