<svg id="percentage" xmlns="http://www.w3.org/2000/svg" width="20" height="21.399" viewBox="0 0 20 21.399">
  <path id="Vector" d="M1.885,20.92,13.964,1.568a1.02,1.02,0,1,0-1.73-1.08L.155,19.84A1.02,1.02,0,0,0,.48,21.245h0A1.019,1.019,0,0,0,1.885,20.92Z" transform="translate(2.941)" fill="#fff"/>
  <path id="Vector-2" data-name="Vector" d="M4.5,10.27C2.02,10.27,0,7.966,0,5.135S2.02,0,4.5,0s4.5,2.3,4.5,5.134S6.986,10.27,4.5,10.27Zm0-8.231c-1.358,0-2.463,1.388-2.463,3.1s1.105,3.1,2.463,3.1,2.464-1.389,2.464-3.1S5.861,2.039,4.5,2.039Z" transform="translate(0 0.483)" fill="#fff"/>
  <path id="Vector-3" data-name="Vector" d="M4.5,10.27C2.02,10.27,0,7.966,0,5.135S2.02,0,4.5,0s4.5,2.3,4.5,5.134S6.986,10.27,4.5,10.27Zm0-8.231c-1.358,0-2.463,1.388-2.463,3.1s1.105,3.1,2.463,3.1,2.464-1.389,2.464-3.1S5.861,2.039,4.5,2.039Z" transform="translate(10.994 10.654)" fill="#fff"/>
</svg>
