<svg xmlns="http://www.w3.org/2000/svg" width="22" height="22" viewBox="0 0 22 22">
  <path id="profile" d="M12.263,19.1v.818H13.9V19.1Zm11.636,0v.818h1.636V19.1Zm-10,0v-.727H12.263V19.1Zm3.545-4.273h2.909V13.191H17.445ZM23.9,18.373V19.1h1.636v-.727Zm-3.545-3.545A3.545,3.545,0,0,1,23.9,18.373h1.636a5.182,5.182,0,0,0-5.182-5.182ZM13.9,18.373a3.545,3.545,0,0,1,3.545-3.545V13.191a5.182,5.182,0,0,0-5.182,5.182Zm5-13.909a3.727,3.727,0,0,0-3.727,3.727h1.636A2.091,2.091,0,0,1,18.9,6.1Zm3.727,3.727A3.727,3.727,0,0,0,18.9,4.464V6.1a2.091,2.091,0,0,1,2.091,2.091ZM18.9,11.918a3.727,3.727,0,0,0,3.727-3.727H20.991A2.091,2.091,0,0,1,18.9,10.282Zm0-1.636a2.091,2.091,0,0,1-2.091-2.091H15.173A3.727,3.727,0,0,0,18.9,11.918Zm0,10.182A9.364,9.364,0,0,1,9.536,11.1H7.9a11,11,0,0,0,11,11ZM28.263,11.1A9.364,9.364,0,0,1,18.9,20.464V22.1a11,11,0,0,0,11-11ZM18.9,1.736A9.364,9.364,0,0,1,28.263,11.1H29.9a11,11,0,0,0-11-11ZM18.9.1a11,11,0,0,0-11,11H9.536A9.364,9.364,0,0,1,18.9,1.736Z" transform="translate(-7.9 -0.1)" fill="#a1a1ab"/>
</svg>
