<svg xmlns="http://www.w3.org/2000/svg" width="24.01" height="16.829" viewBox="0 0 24.01 16.829">
  <g id="transport" transform="translate(0.005 0.005)">
    <ellipse id="Ellipse_375" data-name="Ellipse 375" cx="2.5" cy="2" rx="2.5" ry="2" transform="translate(2 12.41)" fill="none"/>
    <ellipse id="Ellipse_376" data-name="Ellipse 376" cx="2.5" cy="2" rx="2.5" ry="2" transform="translate(17 12.41)" fill="none"/>
    <path id="Vector" d="M4.4,16.819h-.01a2.776,2.776,0,0,1-2.765-2.786c0-.014,0-.026,0-.039s0-.038,0-.069H1.329A1.346,1.346,0,0,1,0,12.56V2.218A2.2,2.2,0,0,1,2.186,0H13.61a2.21,2.21,0,0,1,2.2,2.219v.675h2.4a2.177,2.177,0,0,1,1.952,1.2l1.388,2.7,1.634.707A1.348,1.348,0,0,1,24,8.739v3.826a1.352,1.352,0,0,1-1.35,1.351h-.691v.133a2.781,2.781,0,0,1-2.776,2.765h-.01a2.776,2.776,0,0,1-2.765-2.786V13.92H7.175a.837.837,0,0,1,.005.108v.026A2.781,2.781,0,0,1,4.4,16.819Zm14.784-4.474a1.7,1.7,0,1,0,1.7,1.7A1.706,1.706,0,0,0,19.188,12.345Zm-14.778,0a1.7,1.7,0,1,0,1.7,1.7A1.706,1.706,0,0,0,4.41,12.345Zm14.775-1.081h0a2.786,2.786,0,0,1,2.515,1.6h.954a.278.278,0,0,0,.279-.3V8.761a.316.316,0,0,0-.172-.289l-1.7-.751H15.807v5.144h.868a2.774,2.774,0,0,1,2.51-1.6Zm-14.764,0a2.758,2.758,0,0,1,2.5,1.6h7.813V9.811H1.072V12.57a.278.278,0,0,0,.278.3H1.9a2.753,2.753,0,0,1,2.5-1.6h.023ZM2.186,1.077A1.132,1.132,0,0,0,1.072,2.224V8.739H14.736V2.218A1.135,1.135,0,0,0,13.61,1.077ZM15.807,3.971V6.649h4.48L19.215,4.576a1.126,1.126,0,0,0-1-.6h-2.4Z" fill="#fff" stroke="#fff" stroke-width="0.01" stroke-dasharray="0 0"/>
  </g>
</svg>
