<svg xmlns="http://www.w3.org/2000/svg" width="15" height="15" viewBox="0 0 15 15">
  <g id="google_pay" transform="translate(-53 -394)">
    <path id="Vector" d="M3.324,5.014,2.8,6.963.894,7A7.513,7.513,0,0,1,.839,0h0l1.7.311L3.282,2a4.475,4.475,0,0,0,.042,3.014Z" transform="translate(53 398.05)" fill="#fbbb00"/>
    <path id="Vector-2" data-name="Vector" d="M7.2,0a7.509,7.509,0,0,1,.131,1.4,7.519,7.519,0,0,1-.164,1.566A7.5,7.5,0,0,1,4.53,7.25h0L2.39,7.14l-.3-1.891A4.47,4.47,0,0,0,4.01,2.967H0V0H7.2Z" transform="translate(60.665 400.099)" fill="#518ef8"/>
    <path id="Vector-3" data-name="Vector" d="M11.3,4.284h0a7.468,7.468,0,0,1-4.7,1.651A7.5,7.5,0,0,1,0,1.99L2.431,0A4.459,4.459,0,0,0,6.606,2.894a4.434,4.434,0,0,0,2.252-.61Z" transform="translate(53.894 403.065)" fill="#28b446"/>
    <path id="Vector-4" data-name="Vector" d="M11.449,1.727,9.019,3.716A4.46,4.46,0,0,0,2.444,6.051L0,4.051H0A7.5,7.5,0,0,1,11.449,1.727Z" transform="translate(53.839 394)" fill="#f14336"/>
  </g>
</svg>
