<svg xmlns="http://www.w3.org/2000/svg" width="14.942" height="16.999" viewBox="0 0 14.942 16.999">
  <g id="paypal" transform="translate(-53 -243)">
    <path id="Vector" d="M3.309,14.708H.5a.5.5,0,0,1-.5-.542L1.2.455A.5.5,0,0,1,1.7,0H8.229A4.03,4.03,0,0,1,12.3,4.459a4.774,4.774,0,0,1-1.549,3.093A4.743,4.743,0,0,1,7.543,8.832H4.279L3.8,14.254A.5.5,0,0,1,3.309,14.708Z" transform="translate(55.625 245.291)" fill="#507be9"/>
    <path id="Vector-2" data-name="Vector" d="M3.383,0H0V8.832H2.7A4.742,4.742,0,0,0,5.9,7.553,4.774,4.774,0,0,0,7.454,4.459,4.081,4.081,0,0,0,6.415,1.3,4.054,4.054,0,0,0,3.383,0Z" transform="translate(60.471 245.291)" fill="#3266c8"/>
    <path id="Vector-3" data-name="Vector" d="M3.309,14.708H.5a.5.5,0,0,1-.5-.541L1.2.455A.5.5,0,0,1,1.7,0H8.228A4.031,4.031,0,0,1,12.3,4.459a4.774,4.774,0,0,1-1.549,3.094A4.743,4.743,0,0,1,7.543,8.832H4.279L3.8,14.254A.5.5,0,0,1,3.309,14.708Z" transform="translate(53 243)" fill="#7dbeff"/>
    <path id="Vector-4" data-name="Vector" d="M.758,0H0V8.832H.072A4.743,4.743,0,0,0,3.28,7.553,4.774,4.774,0,0,0,4.829,4.459,4.081,4.081,0,0,0,3.79,1.3,4.054,4.054,0,0,0,.758,0Z" transform="translate(60.471 243)" fill="#6496f7"/>
    <path id="Vector-5" data-name="Vector" d="M1.543,0a.5.5,0,0,0-.5.455L0,12.416H.529a.5.5,0,0,0,.5-.455L1.5,6.54H4.763A4.743,4.743,0,0,0,7.971,5.261,4.774,4.774,0,0,0,9.52,2.167,4.21,4.21,0,0,0,9.213.151,4.311,4.311,0,0,0,8.073,0H1.543Z" transform="translate(55.78 245.291)" fill="#6496f7"/>
    <path id="Vector-6" data-name="Vector" d="M3.383,0H0V6.54H.072A4.743,4.743,0,0,0,3.28,5.261,4.774,4.774,0,0,0,4.829,2.167,4.21,4.21,0,0,0,4.522.151,4.312,4.312,0,0,0,3.383,0Z" transform="translate(60.471 245.291)" fill="#507be9"/>
  </g>
</svg>
