<svg xmlns="http://www.w3.org/2000/svg" width="30" height="9.095" viewBox="0 0 30 9.095">
  <g id="visa" transform="translate(-45 -321)">
    <path id="Vector" d="M0,8.571,1.524,0H3.9L2.429,8.571Z" transform="translate(56 321.285)" fill="#3c58bf"/>
    <path id="Vector-2" data-name="Vector" d="M0,8.571,1.952,0H3.9L2.429,8.571Z" transform="translate(56 321.285)" fill="#293688"/>
    <path id="Vector-3" data-name="Vector" d="M7.286.381A6.04,6.04,0,0,0,5.1,0C2.714,0,1,1.19,1,2.9,1,4.19,2.19,4.857,3.143,5.286S4.381,6,4.381,6.381c0,.571-.762.857-1.429.857A5.176,5.176,0,0,1,.667,6.762L.333,6.619,0,8.571a7.721,7.721,0,0,0,2.714.476c2.524,0,4.19-1.19,4.19-3,0-1-.619-1.762-2.048-2.381C4,3.238,3.476,3,3.476,2.571c0-.381.429-.762,1.381-.762a4.368,4.368,0,0,1,1.81.333l.238.1Z" transform="translate(59.762 321)" fill="#3c58bf"/>
    <path id="Vector-4" data-name="Vector" d="M7.286.381A6.04,6.04,0,0,0,5.1,0C2.714,0,1.429,1.19,1.429,2.9A2.489,2.489,0,0,0,3.143,5.286c.952.429,1.238.714,1.238,1.1,0,.571-.762.857-1.429.857A5.176,5.176,0,0,1,.667,6.762L.333,6.619,0,8.571a7.721,7.721,0,0,0,2.714.476c2.524,0,4.19-1.19,4.19-3,0-1-.619-1.762-2.048-2.381C4,3.238,3.476,3,3.476,2.571c0-.381.429-.762,1.381-.762a4.368,4.368,0,0,1,1.81.333l.238.1Z" transform="translate(59.762 321)" fill="#293688"/>
    <path id="Vector-5" data-name="Vector" d="M4.81,0c-.571,0-1,.048-1.238.619L0,8.571H2.571l.476-1.429H6.1l.286,1.429H8.667L6.667,0Zm-1.1,5.714c.143-.429.952-2.524.952-2.524s.19-.524.333-.857l.143.81s.476,2.143.571,2.619h-2Z" transform="translate(66.333 321.285)" fill="#3c58bf"/>
    <path id="Vector-6" data-name="Vector" d="M5.381,0c-.571,0-1,.048-1.238.619L0,8.571H2.571l.476-1.429H6.1l.286,1.429H8.667L6.667,0ZM3.714,5.714c.19-.476.952-2.524.952-2.524s.19-.524.333-.857l.143.81s.476,2.143.571,2.619h-2Z" transform="translate(66.333 321.285)" fill="#293688"/>
    <path id="Vector-7" data-name="Vector" d="M3.571,5.952,3.333,4.714A6.9,6.9,0,0,0,0,.952L2.143,8.571H4.714L8.571,0H6Z" transform="translate(48.048 321.333)" fill="#3c58bf"/>
    <path id="Vector-8" data-name="Vector" d="M3.571,5.952,3.333,4.714A6.9,6.9,0,0,0,0,.952L2.143,8.571H4.714L8.571,0h-2.1Z" transform="translate(48.048 321.333)" fill="#293688"/>
    <path id="Vector-9" data-name="Vector" d="M0,0,.429.1A8.031,8.031,0,0,1,6.381,4.762L5.524.714C5.381.143,4.952,0,4.429,0Z" transform="translate(45 321.285)" fill="#ffbc00"/>
    <path id="Vector-10" data-name="Vector" d="M0,0C3.048.714,5.571,2.571,6.381,4.714l-.81-3.381a1.162,1.162,0,0,0-1.143-.9Z" transform="translate(45 321.285)" fill="#f7981d"/>
    <path id="Vector-11" data-name="Vector" d="M0,0C3.048.714,5.571,2.571,6.381,4.714L5.81,2.857a1.679,1.679,0,0,0-1-1.381Z" transform="translate(45 321.285)" fill="#ed7c00"/>
    <g id="Group">
      <path id="Vector-12" data-name="Vector" d="M5.9,4.762,4.286,3.143l-.762,1.81-.19-1.19A6.9,6.9,0,0,0,0,0L2.143,7.619H4.714Z" transform="translate(48.095 322.238)" fill="#051244"/>
      <path id="Vector-13" data-name="Vector" d="M2.429,2.1.381,0,0,2.1Z" transform="translate(56 327.762)" fill="#051244"/>
      <path id="Vector-14" data-name="Vector" d="M4.143,0c.19.19.286.333.238.524,0,.571-.762.857-1.429.857A5.176,5.176,0,0,1,.667.9L.333.762,0,2.714a7.721,7.721,0,0,0,2.714.476A4.715,4.715,0,0,0,6.19,2Z" transform="translate(59.762 326.904)" fill="#051244"/>
      <path id="Vector-15" data-name="Vector" d="M0,6.238H2.238L2.714,4.81H5.762l.286,1.429H8.333l-.81-3.476L4.667,0,4.81.762s.476,2.143.571,2.619h-2c.19-.476.952-2.524.952-2.524S4.524.333,4.667,0" transform="translate(66.667 323.619)" fill="#051244"/>
    </g>
  </g>
</svg>
